<svg id="visual" viewBox="0 0 900 100" width="900" height="100" xmlns="http://www.w3.org/2000/svg" xmlns:xlink="http://www.w3.org/1999/xlink" version="1.1"><rect x="0" y="0" width="900" height="100" fill="#5ea4f9"></rect><path d="M0 48L37.5 51.5C75 55 150 62 225 59.3C300 56.7 375 44.3 450 38.8C525 33.3 600 34.7 675 36.8C750 39 825 42 862.5 43.5L900 45L900 101L862.5 101C825 101 750 101 675 101C600 101 525 101 450 101C375 101 300 101 225 101C150 101 75 101 37.5 101L0 101Z" fill="#1e3a89" stroke-linecap="round" stroke-linejoin="miter"></path></svg>