<svg id="visual" viewBox="0 0 900 100" width="900" height="100" xmlns="http://www.w3.org/2000/svg" xmlns:xlink="http://www.w3.org/1999/xlink" version="1.1"><rect x="0" y="0" width="900" height="100" fill="#5ea4f9"></rect><path d="M0 62L25 57.2C50 52.3 100 42.7 150 38.8C200 35 250 37 300 37.8C350 38.7 400 38.3 450 41.7C500 45 550 52 600 52C650 52 700 45 750 43C800 41 850 44 875 45.5L900 47L900 101L875 101C850 101 800 101 750 101C700 101 650 101 600 101C550 101 500 101 450 101C400 101 350 101 300 101C250 101 200 101 150 101C100 101 50 101 25 101L0 101Z" fill="#1e3a8a" stroke-linecap="round" stroke-linejoin="miter"></path></svg>