<svg id="visual" viewBox="0 0 900 100" width="900" height="100" xmlns="http://www.w3.org/2000/svg" xmlns:xlink="http://www.w3.org/1999/xlink" version="1.1"><rect x="0" y="0" width="900" height="100" fill="#3e3914"></rect><path d="M0 76L37.5 68.7C75 61.3 150 46.7 225 38C300 29.3 375 26.7 450 34.3C525 42 600 60 675 67C750 74 825 70 862.5 68L900 66L900 0L862.5 0C825 0 750 0 675 0C600 0 525 0 450 0C375 0 300 0 225 0C150 0 75 0 37.5 0L0 0Z" fill="#CC5500" stroke-linecap="round" stroke-linejoin="miter"></path></svg>