<svg id="visual" viewBox="0 0 900 100" width="900" height="100" xmlns="http://www.w3.org/2000/svg" xmlns:xlink="http://www.w3.org/1999/xlink" version="1.1"><rect x="0" y="0" width="900" height="100" fill="#1c1b22"></rect><path d="M0 54L25 58.2C50 62.3 100 70.7 150 74.8C200 79 250 79 300 77C350 75 400 71 450 67.8C500 64.7 550 62.3 600 55.3C650 48.3 700 36.7 750 33C800 29.3 850 33.7 875 35.8L900 38L900 101L875 101C850 101 800 101 750 101C700 101 650 101 600 101C550 101 500 101 450 101C400 101 350 101 300 101C250 101 200 101 150 101C100 101 50 101 25 101L0 101Z" fill="#cc5500" stroke-linecap="round" stroke-linejoin="miter"></path></svg>