<svg id="visual" viewBox="0 0 900 100" width="900" height="100" xmlns="http://www.w3.org/2000/svg" xmlns:xlink="http://www.w3.org/1999/xlink" version="1.1"><rect x="0" y="0" width="900" height="100" fill="#5F3052"></rect><path d="M0 20L18.8 19.3C37.7 18.7 75.3 17.3 112.8 23.3C150.3 29.3 187.7 42.7 225.2 53.3C262.7 64 300.3 72 337.8 75.8C375.3 79.7 412.7 79.3 450.2 75.8C487.7 72.3 525.3 65.7 562.8 59.5C600.3 53.3 637.7 47.7 675.2 40.5C712.7 33.3 750.3 24.7 787.8 30.3C825.3 36 862.7 56 881.3 66L900 76L900 0L881.3 0C862.7 0 825.3 0 787.8 0C750.3 0 712.7 0 675.2 0C637.7 0 600.3 0 562.8 0C525.3 0 487.7 0 450.2 0C412.7 0 375.3 0 337.8 0C300.3 0 262.7 0 225.2 0C187.7 0 150.3 0 112.8 0C75.3 0 37.7 0 18.8 0L0 0Z" fill="#EC5809" stroke-linecap="round" stroke-linejoin="miter"></path></svg>