<svg id="visual" viewBox="0 0 900 100" width="900" height="100" xmlns="http://www.w3.org/2000/svg" xmlns:xlink="http://www.w3.org/1999/xlink" version="1.1"><rect x="0" y="0" width="900" height="100" fill="#FFFFFF"></rect><path d="M0 42L30 39.2C60 36.3 120 30.7 180 28.5C240 26.3 300 27.7 360 33.7C420 39.7 480 50.3 540 49C600 47.7 660 34.3 720 32.3C780 30.3 840 39.7 870 44.3L900 49L900 101L870 101C840 101 780 101 720 101C660 101 600 101 540 101C480 101 420 101 360 101C300 101 240 101 180 101C120 101 60 101 30 101L0 101Z" fill="#40bcd8" stroke-linecap="round" stroke-linejoin="miter"></path></svg>